Coordinates
version=1
nRows=34
nColumns=17
inDegrees=yes

Units are S.I. units (second, meters, Newtons, ...)
If the header above contains a line with 'inDegrees', this indicates whether rotational values are in degrees (yes) or radians (no).

endheader
time	pelvis_list	pelvis_rotation	pelvis_tilt	pelvis_tx	pelvis_ty	pelvis_tz	hip_adduction_r	hip_rotation_r	hip_flexion_r	hip_adduction_l	hip_rotation_l	hip_flexion_l	knee_flexion_r	knee_flexion_l	ankle_dorsiflexion_r	ankle_dorsiflexion_l
      0.83300000	      0.62726642	      2.93842338	     -2.24754480	      0.60654497	      1.01363542	      0.02424603	      1.06479675	     -6.74522457	     22.08815227	      2.05536646	      2.38185001	      6.75928369	    -24.09026215	    -59.07185110	      3.31882733	     -9.70363432
      0.85000000	      0.36546265	      2.77429699	     -2.22014488	      0.60613936	      1.01675328	      0.02754334	      1.45889666	     -6.60436502	     20.42444368	      2.69400569	      3.51405549	      9.50569564	    -23.24538113	    -62.29268356	      4.05509987	     -9.18558739
      0.86700000	      0.25488293	      2.58755408	     -2.07001955	      0.60575780	      1.02010801	      0.03050372	      1.64710175	     -6.46053874	     18.63239819	      2.97590559	      4.43076753	     11.92397661	    -22.41732205	    -64.68302621	      4.73370411	     -7.96065565
      0.88300000	      0.22550470	      2.45953880	     -2.05996089	      0.60477616	      1.02332963	      0.03313707	      1.75856866	     -6.39566476	     16.81167462	      2.93837000	      4.95273845	     14.41539897	    -21.15374333	    -66.32774325	      5.22252973	     -6.60071351
      0.90000000	      0.21308093	      2.17223682	     -1.96138228	      0.60404498	      1.02638489	      0.03556109	      1.80545726	     -6.14910797	     14.90946178	      2.70548335	      5.27292924	     16.60530784	    -19.92272167	    -67.18466053	      5.66409349	     -5.31732950
      0.91700000	      0.26074966	      1.97813846	     -1.90441200	      0.60276719	      1.02903645	      0.03750344	      1.77159879	     -5.98991104	     13.07243321	      2.28896917	      5.21836336	     18.69237165	    -18.65356565	    -67.25338175	      6.02910154	     -4.20325274
      0.93300000	      0.32717600	      1.76561147	     -1.87421022	      0.60178831	      1.03148044	      0.03918540	      1.70410168	     -5.87448407	     11.16647529	      1.79792379	      4.87739091	     20.54767460	    -17.20792151	    -66.47308288	      6.29721550	     -3.31091920
      0.95000000	      0.46996043	      1.06146411	     -1.98450361	      0.59935646	      1.03274724	      0.04121525	      1.54246698	     -5.22101423	      9.86742162	      1.21008231	      4.91557913	     22.41262188	    -16.40250119	    -65.05995204	      6.71102939	     -2.54778734
      0.96700000	      0.52577145	      0.70428158	     -2.09656240	      0.59720536	      1.03364905	      0.04252565	      1.46463764	     -4.94071441	      8.47908129	      0.78561768	      4.70027470	     24.07566757	    -15.46688694	    -62.93190120	      7.07352965	     -1.92768482
      0.98300000	      0.53657362	      0.30226046	     -1.95986147	      0.59653109	      1.03476649	      0.04392822	      1.41634151	     -4.70584139	      6.60468925	      0.51603773	      4.71067698	     25.03411089	    -14.27437207	    -59.96849857	      7.36229222	     -1.31226590
      1.00000000	      0.56237682	      0.08404901	     -2.06173300	      0.59396065	      1.03497089	      0.04498433	      1.38684140	     -4.58851276	      5.38431278	      0.25017269	      4.77047578	     26.18063985	    -13.64210050	    -56.40626324	      7.78584403	     -0.93340400
      1.01700000	      0.47819775	     -0.16598889	     -2.06428932	      0.59205992	      1.03488191	      0.04610238	      1.46819011	     -4.48911108	      3.99828656	      0.12672230	      5.21346989	     26.87957576	    -12.98018760	    -52.18829937	      8.25348726	     -0.68828898
      1.03300000	      0.29446765	     -0.35505401	     -2.12246684	      0.59007472	      1.03437757	      0.04731992	      1.66926264	     -4.47588005	      2.59381857	      0.06927988	      6.01956442	     27.41312970	    -12.17157540	    -47.41947354	      8.66040035	     -0.75538065
      1.05000000	      0.04282673	     -0.51161839	     -2.13769628	      0.58813623	      1.03366188	      0.04807988	      1.90152389	     -4.50589492	      1.18922822	     -0.03673976	      7.09326913	     27.65104841	    -11.47299609	    -42.11148665	      9.07447932	     -1.13838733
      1.06700000	     -0.33902437	     -0.84571915	     -2.18523954	      0.58607059	      1.03218021	      0.04901343	      2.25538715	     -4.33396771	     -0.09664762	     -0.13497793	      8.50252118	     27.76355260	    -10.92932413	    -36.52135120	      9.57580486	     -1.69041267
      1.08300000	     -0.66066209	     -1.13268036	     -2.28152386	      0.58441102	      1.03031244	      0.04935142	      2.49902901	     -4.05680454	     -1.40590121	     -0.42077313	      9.76768950	     27.70879787	    -10.31155648	    -30.62009066	     10.07189142	     -2.40782423
      1.10000000	     -1.09643627	     -1.43785798	     -2.30445346	      0.58326604	      1.02806014	      0.04997272	      2.86714998	     -3.78224892	     -2.90978778	     -0.55201510	     10.76467103	     27.53818470	     -9.55971217	    -24.90660614	     10.52445275	     -2.98595905
      1.11700000	     -1.47792791	     -1.73829951	     -2.40011033	      0.58212363	      1.02533952	      0.05033083	      3.17987678	     -3.38745126	     -4.20651554	     -0.60854364	     11.12324098	     27.30622877	     -9.10138952	    -19.26022530	     11.10812582	     -3.38399414
      1.13300000	     -1.94445132	     -2.26835852	     -2.47810205	      0.58070762	      1.02226358	      0.05044533	      3.53983351	     -2.77208438	     -5.36687925	     -0.34348376	     11.07111789	     27.07494912	     -8.93152138	    -14.13820080	     11.76805806	     -3.41216310
      1.15000000	     -2.32270872	     -2.55399784	     -2.40504821	      0.58008023	      1.01934718	      0.05010418	      3.79874921	     -2.39960134	     -6.76000984	      0.17239935	     10.20708783	     26.49154765	     -8.69571711	     -9.31785722	     12.37935696	     -3.20785101
      1.16700000	     -2.65907534	     -2.94859001	     -2.46982323	      0.57974134	      1.01605617	      0.05005007	      4.00648233	     -2.03985624	     -8.05526646	      0.80849646	      9.23454313	     26.18465534	     -8.40722526	     -5.50607220	     12.90682547	     -2.66764299
      1.18300000	     -2.93065231	     -3.49458865	     -2.40383807	      0.57919253	      1.01312310	      0.04967527	      4.07366517	     -1.59255118	     -9.20353196	      1.40798100	      8.43914166	     25.85711568	     -8.65629596	     -2.75467828	     13.51091903	     -2.01841867
      1.20000000	     -3.11227264	     -3.77857746	     -2.46503053	      0.57943257	      1.01018318	      0.04922115	      4.07363095	     -1.37528990	    -10.34733977	      1.84625499	      7.60906319	     25.77400298	     -8.70115212	     -1.13686967	     13.89156410	     -1.44977556
      1.21700000	     -3.26499947	     -4.02859795	     -2.45285075	      0.57898705	      1.00775848	      0.04839524	      4.02343250	     -1.14503310	    -11.13469524	      2.18582289	      6.91070571	     25.97091019	     -9.50548045	     -1.09326789	     14.36213135	     -1.07081340
      1.23300000	     -3.32652130	     -4.37281955	     -2.43636428	      0.57917067	      1.00573310	      0.04734145	      3.87349112	     -0.70087186	    -11.79961316	      2.36682595	      6.40615114	     26.20783506	    -10.56290131	     -2.11518238	     14.73084914	     -1.06998577
      1.25000000	     -3.25422109	     -4.90566898	     -2.39305397	      0.58056204	      1.00428301	      0.04556231	      3.52037388	     -0.02801122	    -12.43063376	      2.34033568	      6.09846231	     26.36190899	    -11.82262031	     -3.90436078	     14.89089142	     -1.48570932
      1.26700000	     -3.16837862	     -4.91150983	     -2.33405538	      0.58258838	      1.00303838	      0.04356102	      3.22366150	      0.18111633	    -12.91596326	      2.32621062	      5.34367387	     26.64053927	    -13.43051091	     -6.30888743	     14.93016111	     -2.33067068
      1.28300000	     -3.35791155	     -5.09991006	     -2.48714509	      0.58338826	      1.00197835	      0.04210512	      3.24032733	      0.56488347	    -12.68562380	      2.56300954	      4.93924948	     27.08674474	    -15.83367734	     -8.70911712	     14.74172124	     -3.53480974
      1.30000000	     -3.40333127	     -5.28771153	     -2.47206081	      0.58572149	      1.00181843	      0.04038602	      3.08356764	      0.93669632	    -12.72651384	      2.60595112	      4.68451941	     27.30261053	    -18.07096727	    -11.26354726	     13.98193432	     -4.41043683
      1.31700000	     -3.33600153	     -5.43793070	     -2.32606574	      0.58857053	      1.00238913	      0.03842025	      2.81610308	      1.29132376	    -12.36435837	      2.48718056	      4.54169631	     27.25793261	    -21.25008298	    -13.69316001	     12.86978007	     -4.92709727
      1.33300000	     -3.27576059	     -5.46798950	     -2.11028102	      0.59162215	      1.00351245	      0.03627497	      2.53559741	      1.42314787	    -11.59782073	      2.35717985	      4.40614673	     26.99715134	    -25.14983481	    -15.95366707	     11.14668534	     -4.99911643
      1.35000000	     -3.13919567	     -5.35181529	     -1.73769460	      0.59490795	      1.00535658	      0.03363931	      2.07772339	      1.14701364	    -10.47638570	      2.14093605	      4.18809704	     26.33631564	    -29.71808329	    -17.86490568	      8.53779203	     -4.69806200
      1.36700000	     -2.96502995	     -5.08715991	     -1.45223078	      0.59795296	      1.00727020	      0.03035586	      1.42945175	      0.41884748	     -8.67269169	      1.82412827	      3.95345255	     25.53383369	    -34.92983937	    -19.35047288	      4.91343998	     -4.09908346
      1.38300000	     -2.75430037	     -4.86078381	     -1.27558051	      0.60035530	      1.00912299	      0.02684219	      0.58514675	     -0.60731615	     -6.20218133	      1.43209174	      3.82304392	     24.62900214	    -40.52841914	    -20.43375031	      0.43423913	     -3.22585508
